<?xml version="1.0" encoding="UTF-8"?>
<svg id="Layer_1" xmlns="http://www.w3.org/2000/svg" baseProfile="tiny" version="1.2" viewBox="0 0 216 215">
  <!-- Generator: Adobe Illustrator 29.6.1, SVG Export Plug-In . SVG Version: 2.1.1 Build 9)  -->
  <path d="M63.19,177.87c-.41-.24-.8-.51-1.19-.79l-1.17-.81c-.78-.54-1.57-1.07-2.31-1.66l-2.26-1.73-2.18-1.84c-.36-.31-.73-.61-1.08-.93l-2.08-1.95c-.34-.32-.71-.64-1.03-.99l-1.98-2.05-.49-.51-.47-.54-.94-1.07c-1.29-1.4-2.42-2.93-3.62-4.4l-1.67-2.31c-.27-.39-.57-.77-.83-1.16l-.78-1.19-.78-1.19c-.26-.4-.52-.79-.75-1.21l-1.44-2.46c-.25-.41-.47-.83-.69-1.25l-.66-1.26-.66-1.26c-.22-.42-.4-.86-.61-1.29-.14-.29-.45-.45-.77-.41-.08.01-.16.04-.23.07.07-.03.14-.07.2-.13.24-.22.32-.57.19-.86-.2-.43-.41-.86-.59-1.3l-.54-1.32-.54-1.32c-.17-.44-.37-.88-.52-1.33l-.95-2.69-.23-.67-.2-.68-.41-1.37c-.59-1.81-.98-3.67-1.45-5.51l-.55-2.8c-.08-.47-.19-.93-.26-1.4l-.2-1.41c-1.17-7.51-1.18-15.18-.26-22.72.05-.32-.12-.62-.42-.76-.08-.03-.15-.06-.23-.06.08.01.16.01.24,0,.33-.05.58-.3.63-.62.15-.94.28-1.88.44-2.81l.58-2.79c.1-.46.17-.94.3-1.39l.36-1.38c.25-.92.46-1.85.73-2.76.59-1.81,1.09-3.65,1.8-5.41l.5-1.34c.17-.44.32-.89.52-1.33l1.13-2.62c1.58-3.45,3.31-6.85,5.37-10.04l.75-1.21c.25-.41.54-.78.8-1.18l1.62-2.34,1.73-2.26c.3-.37.57-.76.88-1.13l.92-1.08c.21-.24.23-.6.05-.88-.04-.07-.1-.13-.16-.18.06.05.12.09.2.13.3.13.65.06.85-.19,2.52-2.84,5.17-5.58,8.07-8.04l1.07-.94,1.11-.89c.75-.59,1.48-1.2,2.24-1.77,1.54-1.11,3.06-2.25,4.68-3.26,1.57-1.07,3.24-1.99,4.88-2.96.83-.45,1.68-.88,2.52-1.33.42-.22.84-.45,1.27-.66l1.29-.6c3.42-1.66,7-2.98,10.62-4.13.31-.09.52-.38.52-.71,0-.08-.01-.16-.04-.24-.07-.22-.25-.41-.48-.49-.62-.2-1.24-.39-1.88-.55-.63-.14-1.26-.27-1.91-.37-1.28-.21-2.61-.39-3.92-.4-.82-.02-1.65,0-2.48.03-.01,0-.02,0-.04,0-4.8.28-9.67,1.76-14.03,4.35,0,0-.02,0-.03.01l-.02.02c-.35.22-.71.43-1.06.66-.75.5-1.51.99-2.21,1.56-.7.57-1.38,1.15-2.04,1.75-.33.3-.66.6-.97.91-.31.32-.61.65-.91.98-.59.66-1.16,1.33-1.7,2.01-.54.69-1.01,1.43-1.49,2.16-.46.74-.92,1.46-1.31,2.23-.39.77-.74,1.55-1.07,2.34-.33.79-.64,1.56-.87,2.39v.04c-.52,1.77-.95,3.49-1.11,5.31-.02.25.08.48.25.64-.18-.15-.43-.21-.66-.15-1.25.33-2.52.73-3.69,1.26-.6.26-1.19.54-1.78.83-.59.3-1.19.6-1.74.95-.69.43-1.38.89-2.06,1.38,0,0-.02.02-.03.02-3.88,2.83-7.22,6.7-9.46,11.25,0,0-.02.01-.02.02v.02c-.21.36-.36.75-.53,1.13-.71,1.67-1.38,3.35-1.77,5.1-.22.87-.41,1.73-.57,2.6-.15.87-.23,1.75-.31,2.63-.07.87-.12,1.74-.12,2.61.02.87.07,1.74.14,2.59.04.43.08.85.13,1.28.05.42.11.84.2,1.26.17.84.36,1.67.58,2.48,0,.02,0,.03,0,.04.44,1.74,1.16,3.45,1.94,5.05.11.22.31.36.55.4-.23-.03-.48.06-.65.23-.46.48-.85.97-1.25,1.48-.4.51-.78,1.03-1.16,1.58-.37.54-.75,1.09-1.07,1.66-.32.57-.63,1.15-.92,1.74-.36.74-.71,1.5-1.03,2.27,0,.01,0,.02-.01.04-1.73,4.49-2.41,9.53-1.86,14.57,0,.01,0,.02,0,.03v.02c.06.41.11.82.17,1.23.23,1.8.72,3.55,1.24,5.25.25.85.61,1.68.95,2.49.35.81.72,1.61,1.12,2.39.43.76.88,1.52,1.35,2.24.48.73.94,1.44,1.5,2.11.54.67,1.1,1.32,1.67,1.95.29.31.58.62.87.92.31.29.63.58.95.86.01.01.02.02.03.03.69.6,1.39,1.17,2.11,1.71.35.27.73.53,1.11.77.38.24.77.48,1.16.71.21.12.47.13.69.04-.21.1-.37.3-.42.54-.11.64-.2,1.29-.28,1.94-.05.64-.08,1.29-.1,1.94-.02,1.3-.02,2.65.16,3.94.1.81.23,1.63.39,2.45,0,.01,0,.02,0,.04.96,4.71,3.11,9.32,6.29,13.27,0,0,0,.02.01.03h.02c.26.33.53.65.8.96,4.79,5.47,11.26,9.1,17.96,10.13.01,0,.03,0,.04,0,.91.13,1.81.23,2.71.29.45.03.9.05,1.34.06.45,0,.91-.01,1.36-.03.24-.01.47-.14.6-.34.04-.07.08-.14.1-.22.08-.32-.04-.65-.31-.82Z" fill="#111c4e"/>
  <path d="M84.94,29.52c14.6-4.27,30.36-4.4,45.02-.28.31.08.64-.06.82-.33.04-.06.07-.12.09-.19-.02.07-.03.14-.03.21,0,.33.21.62.52.72,14.61,4.28,27.91,12.74,38.03,24.1.21.24.56.31.86.18.07-.03.14-.08.2-.13.18-.16.27-.4.24-.64-.07-.64-.17-1.29-.28-1.94-.11-.65-.28-1.26-.44-1.9-.17-.63-.36-1.26-.56-1.88-.1-.31-.21-.63-.32-.94-.11-.31-.25-.61-.38-.91-.32-.75-.68-1.5-1.06-2.24,0,0-.01-.02-.02-.03-2.24-4.25-5.6-8.08-9.77-10.98,0,0-.01-.02-.02-.02h-.02c-.35-.24-.69-.46-1.04-.68-.77-.48-1.55-.93-2.34-1.37-.8-.42-1.62-.77-2.45-1.12-.41-.17-.83-.34-1.24-.5-.41-.16-.83-.32-1.26-.44-.85-.25-1.7-.48-2.56-.68-.43-.1-.85-.2-1.28-.28-.43-.08-.87-.13-1.3-.19-.86-.11-1.72-.19-2.58-.24-.85-.07-1.72-.05-2.57,0-.86.04-1.7.1-2.53.2-.01,0-.03,0-.04,0l-.67.09c-.23.04-.45.08-.68.12-.45.09-.9.18-1.34.28-.88.21-1.75.44-2.59.72-.23.07-.4.26-.47.48.06-.23.01-.47-.15-.66-.83-.98-1.72-1.92-2.68-2.83-.24-.22-.48-.45-.73-.66-.25-.21-.5-.41-.77-.61-.52-.4-1.05-.79-1.59-1.17-.68-.46-1.37-.95-2.1-1.33-.01,0-.02,0-.03-.02-1.05-.58-2.14-1.11-3.26-1.6-1.13-.47-2.3-.84-3.48-1.19-1.19-.37-2.41-.58-3.65-.79-.62-.1-1.24-.18-1.87-.25-.63-.06-1.26-.08-1.89-.1-.01,0-.02,0-.03,0h-.02c-.42,0-.83-.02-1.25-.02-.46,0-.91,0-1.36.02-.45.02-.9.07-1.35.11-.9.09-1.79.21-2.67.35-.44.06-.88.16-1.31.27-.43.11-.86.21-1.29.33-.86.24-1.7.47-2.53.77-.82.32-1.63.66-2.42,1.01-.79.36-1.56.73-2.3,1.18-.74.44-1.47.9-2.17,1.38-.35.24-.7.47-1.03.74-.34.27-.66.54-.98.81-.01.01-.02.02-.03.03-.69.6-1.36,1.21-2,1.84-.64.63-1.23,1.34-1.79,2.04-.15.19-.2.44-.13.67.02.08.06.15.1.22.18.28.52.4.82.31Z" fill="#111c4e"/>
  <path d="M194.16,100.86s-.02-.02-.02-.04c-.49-.77-1-1.52-1.53-2.24-.55-.72-1.16-1.4-1.77-2.06-.17-.18-.41-.26-.64-.23.23-.04.44-.19.55-.41.28-.58.58-1.18.81-1.78.23-.6.45-1.22.65-1.84.4-1.25.75-2.53.95-3.83.14-.81.24-1.63.33-2.46,0-.01,0-.02,0-.04.4-4.79-.37-9.83-2.32-14.51,0-.01,0-.02,0-.03l-.02-.02c-.16-.38-.33-.76-.5-1.14-1.49-3.31-3.62-6.25-6.03-8.78-.62-.63-1.27-1.21-1.93-1.78-.33-.28-.66-.56-1-.83-.33-.27-.67-.54-1.03-.78-.71-.49-1.43-.96-2.16-1.4-.36-.22-.73-.43-1.1-.64-.37-.2-.76-.38-1.15-.56-.01,0-.03-.01-.04-.02-1.67-.76-3.32-1.42-5.1-1.84-.24-.06-.49,0-.67.16-.06.05-.11.11-.16.18-.17.28-.15.63.06.87,2.46,2.89,4.79,5.91,6.81,9.13l.78,1.19c.25.4.48.82.73,1.23.48.82.97,1.63,1.43,2.46.87,1.69,1.8,3.35,2.56,5.09.84,1.71,1.52,3.48,2.24,5.24.34.89.64,1.79.96,2.68l.47,1.35.41,1.37c1.16,3.62,1.95,7.35,2.58,11.1.05.32.3.56.62.61.08.01.16,0,.24,0-.08.01-.15.03-.23.07-.3.14-.47.45-.42.77l.21,1.41c.07.47.1.95.15,1.42l.27,2.84.13,2.85c.02.47.06.95.05,1.43v1.42c.05,3.8-.28,7.59-.77,11.36l-.43,2.82c-.06.47-.17.94-.27,1.4l-.29,1.4c-.34,1.87-.88,3.7-1.35,5.54-.25.92-.56,1.82-.84,2.73l-.43,1.36c-.13.46-.32.89-.48,1.34l-.99,2.67c-.35.88-.75,1.75-1.12,2.62-.12.29-.04.64.21.86.06.05.13.1.2.13-.07-.03-.15-.06-.23-.07-.33-.04-.63.13-.76.43-3.22,6.89-7.29,13.38-12.26,19.13l-.92,1.09c-.31.36-.64.7-.97,1.05l-1.95,2.08c-1.38,1.31-2.7,2.68-4.15,3.9l-1.07.94-.54.47-.55.44-2.23,1.78c-.37.31-.76.57-1.14.85l-1.15.84-1.16.83c-.39.27-.79.52-1.19.78-.27.17-.39.51-.3.83.02.08.06.15.1.21-.04-.06-.09-.13-.16-.18-.25-.21-.61-.24-.87-.06-.4.26-.79.53-1.2.77l-1.23.72-1.23.72c-.41.24-.82.49-1.24.7l-2.52,1.32c-.42.23-.85.42-1.28.62l-1.29.6-1.29.6c-.43.2-.88.36-1.32.55l-2.64,1.07c-1.79.61-3.57,1.31-5.4,1.81l-1.37.41-.68.2-.69.17-2.77.68c-.46.12-.93.2-1.39.29l-1.4.28-1.4.27c-.47.08-.94.14-1.41.21l-2.82.41-2.83.28c-.95.11-1.9.14-2.85.18l-1.42.07c-.47.03-.95.05-1.42.04-.32,0-.6.21-.7.53-.03.08-.03.16-.03.23,0,.24.13.47.33.61,1.07.77,2.2,1.37,3.37,1.96.59.29,1.19.56,1.8.82.61.25,1.23.46,1.85.66.78.25,1.58.48,2.39.68.01,0,.02,0,.04,0,4.69,1.07,9.78,1.03,14.69-.24.01,0,.02,0,.03,0h.03c.4-.12.8-.23,1.2-.35,3.49-1.01,6.71-2.7,9.55-4.72.7-.53,1.38-1.09,2.03-1.66.33-.28.65-.57.96-.87l.47-.44.45-.47c.59-.64,1.15-1.28,1.69-1.94.27-.33.53-.66.78-1,.25-.34.49-.7.72-1.06,0,0,.02-.02.02-.03.5-.77.97-1.55,1.4-2.33.1-.2.21-.4.31-.59.1-.2.2-.41.29-.62.19-.41.37-.83.54-1.25.09-.23.06-.48-.06-.68.14.19.36.32.6.33.65.02,1.3.02,1.96,0,.65-.03,1.29-.09,1.93-.17.65-.08,1.3-.17,1.95-.29.32-.06.66-.12.98-.19.32-.08.64-.16.96-.24.79-.21,1.58-.46,2.37-.73,0,0,.02,0,.03-.01,4.53-1.62,8.8-4.4,12.26-8.11,0,0,.02,0,.02-.02v-.02c.29-.31.56-.62.83-.94,4.74-5.52,7.39-12.46,7.47-19.22,0-.02,0-.03,0-.04,0-.92-.05-1.83-.12-2.73-.03-.45-.08-.9-.13-1.34-.03-.22-.06-.44-.09-.66-.04-.22-.08-.45-.12-.67-.05-.24-.21-.44-.43-.54.22.09.47.08.68-.05,1.09-.68,2.18-1.42,3.2-2.25.99-.84,1.94-1.74,2.86-2.71.59-.6,1.07-1.25,1.59-1.9,0,0,.01-.02.02-.03.37-.48.72-.97,1.07-1.47.34-.5.7-1,.99-1.54.6-1.05,1.17-2.15,1.69-3.27l.19-.42.17-.43c.1-.29.21-.58.32-.87.21-.58.41-1.17.6-1.77.4-1.19.66-2.43.88-3.67,0-.01,0-.02,0-.03v-.03c.08-.4.15-.81.21-1.22,1.05-7.2-.55-14.48-4.12-20.21Z" fill="#111c4e"/>
  <path d="M107.72,191.06c-1.9.04-3.8-.11-5.69-.2-.95-.06-1.89-.19-2.84-.27l-1.42-.15c-.47-.05-.94-.14-1.41-.2l-2.82-.43-2.79-.57-1.4-.29-1.38-.36-2.76-.71-2.72-.86-1.36-.43-1.33-.5-2.67-1-2.62-1.13c-.43-.19-.88-.36-1.31-.57l-1.28-.63c-.85-.43-1.72-.82-2.55-1.27-1.66-.93-3.34-1.81-4.93-2.85-.27-.17-.63-.14-.88.08-.06.05-.11.12-.15.18-.13.2-.15.46-.05.68.25.59.53,1.18.82,1.77.15.29.3.58.45.87.16.28.33.55.5.83.68,1.1,1.44,2.19,2.27,3.23.53.62,1.08,1.23,1.66,1.83,0,0,.02.02.03.03,3.35,3.45,7.65,6.2,12.48,7.75.01,0,.02.01.03.02h.02c.39.13.78.27,1.18.39.88.23,1.76.43,2.64.61.44.09.88.17,1.32.25.22.04.44.07.66.1l.67.07c.89.09,1.78.14,2.66.17.44.02.88.03,1.32.03.44-.02.88-.04,1.32-.07.88-.06,1.75-.15,2.6-.26l.64-.09c.21-.04.43-.08.64-.13.43-.09.85-.18,1.27-.28.84-.2,1.66-.43,2.47-.68.81-.27,1.6-.6,2.38-.94.01,0,.03-.01.04-.01.83-.37,1.64-.75,2.43-1.19.79-.46,1.55-.94,2.29-1.45.2-.14.31-.37.31-.61,0-.08-.01-.16-.03-.24-.1-.32-.38-.53-.7-.53Z" fill="#111c4e"/>
  <path d="M102.93,70.18c-22.38,0-40.53,18.14-40.53,40.53h40.53v-40.53Z" fill="#111c4e"/>
  <path d="M153.59,87.62c-12.73,0-23.05,10.32-23.05,23.05h23.05v-23.05Z" fill="#111c4e"/>
  <path d="M96.39,165.55l11.72,11.72,11.71-11.72c-6.47-6.47-16.96-6.47-23.43,0Z" fill="#111c4e"/>
  <path d="M128.14,87.62c-12.73,0-23.05,10.32-23.05,23.05h23.05v-23.05Z" fill="#111c4e"/>
  <path d="M83.21,50.45c-2.72,0-4.92,2.2-4.92,4.92h4.92v-4.92Z" fill="#111c4e"/>
  <path d="M83.21,59.8v-3.31h-3.31c0,1.83,1.48,3.31,3.31,3.31Z" fill="#111c4e"/>
  <path d="M91.32,42.36c-3.25,0-5.88,2.63-5.88,5.88h5.88v-5.88Z" fill="#111c4e"/>
  <path d="M97.2,42.36c-3.25,0-5.88,2.63-5.88,5.88h5.88v-5.88Z" fill="#111c4e"/>
  <path d="M103.08,42.36c-3.25,0-5.88,2.63-5.88,5.88h5.88v-5.88Z" fill="#111c4e"/>
  <path d="M85.4,61.76v6.18h6.18c0-3.41-2.77-6.18-6.18-6.18Z" fill="#111c4e"/>
  <path d="M153.59,112.88H62.32c0,25.2,20.43,45.63,45.63,45.63s45.63-20.43,45.63-45.63Z" fill="#111c4e"/>
  <path d="M102.92,67.95v-17.5h-17.5c0,9.67,7.84,17.5,17.5,17.5ZM87.95,53.85c0-.89.72-1.6,1.6-1.6s1.6.72,1.6,1.6-.72,1.6-1.6,1.6-1.6-.72-1.6-1.6Z" fill="#111c4e"/>
</svg>